<svg width="753" height="740" viewBox="0 0 753 740" fill="none" xmlns="http://www.w3.org/2000/svg">
<g opacity="0.15" clip-path="url(#clip0_1_193)">
<path d="M520.78 365.601C507.652 361.7 497.963 347.617 496.099 329.722C494.233 311.826 500.809 296.046 512.852 289.521C517.563 286.968 549.753 289.156 533.915 297.735C517.245 306.773 514.383 317.957 515.399 327.709C516.415 337.458 520.542 347.54 538.714 352.94C555.981 358.073 525.916 367.128 520.78 365.601Z" fill="#EBB044"/>
<path d="M444.206 224.272C440.305 237.4 446.811 253.208 460.783 264.542C474.755 275.877 491.565 278.986 503.608 272.461C508.321 269.909 524.067 241.748 508.23 250.331C491.556 259.36 480.622 255.649 473.009 249.472C465.397 243.296 459.206 234.333 464.606 216.161C469.736 198.896 445.732 219.135 444.206 224.272Z" fill="#EBB044"/>
<path d="M284.273 295.319C297.401 299.22 313.209 292.713 324.543 278.741C335.879 264.768 338.988 247.958 332.463 235.915C329.911 231.203 301.75 215.457 310.332 231.293C319.362 247.968 315.651 258.9 309.474 266.514C303.299 274.127 294.336 280.318 276.164 274.918C258.897 269.788 279.136 293.792 284.273 295.319Z" fill="#EBB044"/>
<path d="M425.603 218.744C421.702 231.871 407.618 241.561 389.724 243.425C371.829 245.291 356.049 238.715 349.524 226.672C346.97 221.96 349.159 189.771 357.738 205.609C366.775 222.279 377.961 225.141 387.712 224.124C397.461 223.108 407.543 218.98 412.943 200.809C418.074 183.543 427.129 213.607 425.603 218.744Z" fill="#EBB044"/>
<path d="M515.251 384.205C502.123 380.304 486.315 386.811 474.981 400.784C463.645 414.756 460.536 431.566 467.062 443.609C469.614 448.321 497.775 464.067 489.192 448.231C480.163 431.557 483.874 420.624 490.05 413.01C496.226 405.398 505.189 399.206 523.361 404.606C540.629 409.736 520.388 385.732 515.251 384.205Z" fill="#EBB044"/>
<path d="M373.922 460.782C377.823 447.654 391.907 437.965 409.801 436.101C427.696 434.235 443.476 440.811 450.001 452.854C452.555 457.565 450.366 489.755 441.787 473.917C432.75 457.247 421.564 454.385 411.813 455.402C402.064 456.418 391.982 460.545 386.582 478.717C381.451 495.983 372.396 465.919 373.922 460.782Z" fill="#EBB044"/>
<path d="M278.745 313.923C291.872 317.824 301.561 331.908 303.426 349.803C305.291 367.698 298.715 383.478 286.673 390.003C281.961 392.557 249.771 390.368 265.61 381.789C282.28 372.752 285.141 361.567 284.125 351.815C283.109 342.066 278.982 331.984 260.81 326.584C243.544 321.452 273.608 312.396 278.745 313.923Z" fill="#EBB044"/>
<path d="M355.319 455.254C359.22 442.126 352.714 426.318 338.742 414.984C324.77 403.648 307.96 400.54 295.917 407.065C291.204 409.617 275.458 437.778 291.295 429.195C307.969 420.166 318.903 423.877 326.516 430.054C334.128 436.23 340.319 445.193 334.919 463.365C329.789 480.63 353.793 460.391 355.319 455.254Z" fill="#EBB044"/>
<path d="M351.143 193.433L336.324 166.082L288.914 191.769C288.914 191.769 297.393 207.417 303.734 219.119C303.734 219.119 331.572 232.585 339.396 228.346C347.218 224.108 351.143 193.433 351.143 193.433Z" fill="#E1DEE2"/>
<path d="M351.143 193.433C348.012 203.277 341.118 212.847 333.295 217.085C325.471 221.324 313.692 221.872 303.734 219.119L310.331 231.294C312.561 235.412 314.874 238.113 319.746 239.487C328.038 241.951 338.044 241.564 344.626 237.998C351.208 234.432 356.997 226.262 359.462 217.969C360.971 213.136 359.97 209.725 357.74 205.607C356.991 204.229 354.337 199.33 351.143 193.433Z" fill="#C5BEC6"/>
<path d="M289.635 194.501L336.61 169.049L345.062 122.44C345.221 107.871 342.818 94.9295 335.999 82.828C317.976 50.8437 278.646 39.1666 246.607 57.0928C214.094 74.1434 202.396 113.467 219.348 146.032C225.761 158.352 235.29 167.434 247.581 175.257L289.635 194.501Z" fill="#FFF0AF"/>
<path d="M348.642 170.492C343.134 159.49 343.088 149.242 344.426 134.516C344.804 130.362 345.02 126.346 345.063 122.441L335.783 153.67C334.317 158.603 330.951 162.753 326.425 165.205L293.585 182.998C289.06 185.45 283.747 186.004 278.812 184.538L247.584 175.258C250.878 177.354 254.36 179.366 258.048 181.319C271.114 188.24 279.676 193.875 285.883 204.497C288.301 208.637 293.634 210.024 297.849 207.74L344.824 182.288C349.039 180.003 350.789 174.779 348.642 170.492Z" fill="#FFD064"/>
<path d="M446.678 215.343C449.925 213.731 451.14 211.555 452.073 208.415C452.733 206.192 451.383 169.859 451.383 169.859L424.499 161.87L413.22 199.826C413.052 200.39 412.902 200.94 412.77 201.479C414.084 212.277 426.229 216.96 428.752 217.71C433.999 219.27 441.174 218.172 446.678 215.343Z" fill="#E1DEE2"/>
<path d="M443.492 196.416C442.559 199.557 441.344 201.732 438.098 203.344C432.593 206.173 425.417 207.271 420.172 205.712C417.649 204.962 415.093 203.441 412.773 201.478C411.863 205.22 411.925 208.415 414.087 212.277C418.208 219.883 425.557 226.684 432.733 228.816C439.909 230.949 449.78 229.265 457.385 225.144C461.87 222.793 463.575 219.674 464.909 215.186C466.242 210.698 476.188 177.23 476.188 177.23L451.385 169.86C448.751 178.721 444.153 194.194 443.492 196.416Z" fill="#C5BEC6"/>
<path d="M473.548 168.888C480.859 156.907 489.966 150.712 501.059 140.607C515.251 127.681 524.142 114.242 528.878 97.277C531.438 88.1057 533.435 68.1613 525.848 55.1111C517.609 44.1272 505.799 35.6719 491.342 31.588C456.295 20.6529 420.219 40.1885 409.178 75.2029C403.881 92.0008 405.789 108.651 411.59 127.517C413.695 134.359 415.256 140.239 415.962 145.839L462.581 173.19C466.792 174.439 471.261 172.635 473.548 168.888Z" fill="#BFE2E6"/>
<path d="M525.849 55.1115C527.009 63.9104 526.444 73.1246 523.884 82.2959C519.148 99.2605 510.255 112.701 496.065 125.626C484.972 135.731 475.866 141.925 468.554 153.907C466.266 157.655 461.797 159.458 457.588 158.207L415.964 145.838C416.714 151.785 416.496 157.414 414.9 163.532C413.683 168.194 416.435 172.972 421.053 174.344L472.267 189.564C476.885 190.936 481.801 188.436 483.326 183.866C487.215 172.224 494.424 164.954 505.766 155.503C520.929 142.866 531.62 129.961 536.356 112.996C542.188 92.1046 537.744 70.9706 525.849 55.1115Z" fill="#94CCD4"/>
<path d="M508.228 250.329C504.112 252.559 501.409 254.872 500.035 259.744C498.812 263.86 498.293 268.398 498.515 272.729C501.599 279.869 510.095 286.607 514.211 287.83C519.044 289.34 522.455 288.339 526.573 286.109C530.689 283.879 562.11 255.409 562.11 255.409L547.753 228.912C547.754 228.913 512.344 248.099 508.228 250.329Z" fill="#E1DEE2"/>
<path d="M510.223 278.547C506.107 277.324 502.023 275.281 498.516 272.73C498.741 277.125 499.729 281.31 501.526 284.626C505.092 291.208 513.263 296.996 521.555 299.46C526.387 300.97 529.799 299.968 533.916 297.738C538.033 295.508 573.443 276.322 573.443 276.322L562.112 255.41C562.112 255.41 526.702 274.594 522.586 276.826C518.467 279.056 515.054 280.056 510.223 278.547Z" fill="#C5BEC6"/>
<path d="M593.492 159.349C577.869 167.481 567.444 180.603 558.206 198.047C551.296 211.093 545.667 219.647 535.078 225.852C530.921 228.288 529.489 233.612 531.784 237.849L543.29 259.084C545.585 263.321 557.8 277.898 562.111 275.746C573.092 270.264 585.476 268.618 601.044 268.933C621.859 269.354 637.595 270.033 652.939 261.386C686.905 242.247 686.482 197.084 674.202 174.418C654.689 151.435 621.582 144.727 593.492 159.349Z" fill="#FFF0AF"/>
<path d="M645.968 248.517C630.624 257.163 614.888 256.484 594.073 256.063C578.505 255.748 566.121 257.394 555.14 262.876C550.83 265.027 545.587 263.32 543.291 259.083L557.237 284.823C559.533 289.059 564.776 290.767 569.086 288.615C580.067 283.133 590.307 283.089 605.009 284.426C624.666 286.212 641.352 284.645 656.697 275.999C688.682 257.976 700.359 218.647 682.433 186.607C680.089 182.139 677.313 178.079 674.204 174.419C684.364 193.172 673.557 232.97 645.968 248.517Z" fill="#FFD064"/>
<path d="M547.376 398.256L546.648 355.286C543.306 354.293 540.729 353.527 539.696 353.22C535.208 351.887 531.662 351.611 527.245 354.085C519.639 358.206 512.839 365.556 510.707 372.732C510.707 372.732 517.115 389.264 528.023 392.505L547.376 398.256Z" fill="#E1DEE2"/>
<path d="M546.649 355.286L539.95 377.829C539.238 380.226 536.717 381.593 534.319 380.88L519.306 376.419C514.818 375.085 510.707 372.733 510.707 372.733C508.574 379.909 510.258 389.779 514.378 397.384C516.728 401.869 519.848 403.574 524.336 404.908L562.291 416.187L577.651 364.501L546.649 355.288L546.649 355.286Z" fill="#C5BEC6"/>
<path d="M624.014 462.11C659.374 471.983 695.442 452.429 705.422 417.099C707.125 411.639 708.916 395.565 705.854 386.5C698.556 369.288 683.852 355.337 664.323 349.18C647.525 343.883 630.875 345.791 612.009 351.592C597.899 355.931 587.871 358 575.995 354.9C571.333 353.683 566.555 356.436 565.182 361.053L554.678 396.403C564.062 400.537 573.203 421.556 581.508 431.522C594.143 446.683 607.05 457.373 624.014 462.11Z" fill="#FAF8F8"/>
<path d="M705.853 386.498C705.572 391.909 704.609 397.394 702.905 402.854C692.926 438.185 656.859 457.738 621.497 447.865C604.533 443.129 591.627 432.438 578.991 417.275C570.685 407.309 564.06 400.535 554.676 396.401L549.961 412.266C548.589 416.884 551.088 421.8 555.658 423.325C567.3 427.213 574.571 434.423 584.022 445.765C596.659 460.927 609.564 471.618 626.528 476.354C661.889 486.227 697.956 466.673 707.935 431.343C712.771 415.843 711.639 400.146 705.853 386.498Z" fill="#E1DEE2"/>
<path d="M269.913 311.118C266.79 312.956 264.304 312.786 261.163 311.853C258.941 311.192 229.242 290.219 229.242 290.219L237.231 263.335L275.186 274.614C275.751 274.782 276.294 274.957 276.817 275.141C285.145 282.138 282.436 294.87 281.686 297.393C280.127 302.64 275.289 308.051 269.913 311.118Z" fill="#E1DEE2"/>
<path d="M255.798 298.112C258.939 299.046 261.424 299.216 264.548 297.377C269.924 294.31 274.762 288.899 276.321 283.654C277.07 281.13 277.192 278.158 276.815 275.143C280.446 276.424 283.089 278.221 285.143 282.141C289.265 289.747 290.948 299.617 288.816 306.793C286.683 313.969 279.882 321.319 272.276 325.439C267.859 327.912 264.314 327.637 259.826 326.303C255.338 324.97 221.87 315.024 221.87 315.024L229.241 290.222C238.103 292.854 253.576 297.452 255.798 298.112Z" fill="#C5BEC6"/>
<path d="M216.323 308.257C202.294 307.839 192.131 312.085 177.608 315.859C159.03 320.688 142.916 320.797 126.118 315.5C117.037 312.636 99.2386 303.417 92.4497 289.934C87.7477 277.034 87.1141 262.523 91.5881 248.182C101.567 212.851 137.634 193.298 172.996 203.171C189.96 207.907 202.866 218.598 215.502 233.761C220.085 239.26 224.158 243.78 228.463 247.429L225.916 301.419C224.664 305.628 220.712 308.387 216.323 308.257Z" fill="#BFE2E6"/>
<path d="M92.4492 289.935C99.1869 295.712 107.214 300.271 116.295 303.135C133.093 308.432 149.209 308.322 167.786 303.494C182.309 299.72 192.47 295.473 206.501 295.892C210.89 296.022 214.841 293.263 216.092 289.054L228.462 247.43C233.034 251.306 237.868 254.198 243.865 256.201C248.435 257.728 250.935 262.643 249.563 267.261L234.343 318.475C232.971 323.093 228.192 325.846 223.531 324.628C211.655 321.527 201.627 323.597 187.516 327.936C168.649 333.737 152 335.645 135.202 330.348C114.516 323.825 99.2389 308.56 92.4492 289.935Z" fill="#94CCD4"/>
<path d="M265.608 381.784C269.725 379.554 273.138 378.553 277.97 380.063C282.086 381.286 286.17 383.329 289.678 385.881C293.975 392.364 294.979 403.161 293.756 407.277C292.382 412.149 289.68 414.461 285.563 416.692C281.447 418.922 240.439 429.696 240.439 429.696L226.082 403.199C226.082 403.201 261.492 384.015 265.608 381.784Z" fill="#E1DEE2"/>
<path d="M288.158 398.866C289.381 394.75 289.9 390.214 289.678 385.882C293.237 388.471 296.203 391.584 297.999 394.9C301.565 401.482 301.952 411.488 299.488 419.78C298.114 424.652 295.412 426.963 291.295 429.195C287.179 431.425 251.769 450.611 251.769 450.611L240.438 429.699C240.438 429.699 275.847 410.512 279.964 408.282C284.081 406.05 286.784 403.737 288.158 398.866Z" fill="#C5BEC6"/>
<path d="M142.829 403.526C158.174 394.88 174.859 393.312 194.517 395.099C209.22 396.435 219.46 396.392 230.44 390.91C234.751 388.758 239.994 390.465 242.289 394.702L253.795 415.938C256.09 420.174 261.631 438.368 257.474 440.803C246.885 447.009 238.743 456.484 230.505 469.697C219.49 487.364 211.465 500.917 195.843 509.049C161.26 527.051 123.657 502.032 111.376 479.367C102.78 450.469 115.24 419.072 142.829 403.526Z" fill="#FAF8F8"/>
<path d="M188.868 496.181C204.491 488.049 212.516 474.496 223.531 456.829C231.769 443.616 239.91 434.14 250.5 427.935C254.656 425.5 256.089 420.175 253.793 415.939L267.74 441.678C270.035 445.915 268.602 451.239 264.446 453.675C253.856 459.88 248.228 468.434 241.318 481.48C232.08 498.923 221.654 512.044 206.031 520.178C173.466 537.129 134.143 525.433 117.092 492.919C114.629 488.515 112.744 483.973 111.375 479.369C121.538 498.121 160.778 510.803 188.868 496.181Z" fill="#E1DEE2"/>
<path d="M368.15 495.364L332.551 471.288C333.544 467.946 334.31 465.369 334.616 464.336C335.95 459.848 337.656 456.727 342.14 454.378C349.747 450.257 359.617 448.574 366.793 450.707C366.793 450.707 377.142 465.103 373.901 476.011L368.15 495.364Z" fill="#E1DEE2"/>
<path d="M332.55 471.289L355.093 477.988C357.49 478.701 360.011 477.335 360.724 474.937L365.185 459.924C366.519 455.436 366.794 450.707 366.794 450.707C373.97 452.84 381.319 459.641 385.439 467.245C387.913 471.663 387.638 475.208 386.304 479.696L375.025 517.651L323.338 502.292L332.551 471.29L332.55 471.289Z" fill="#C5BEC6"/>
<path d="M379.788 594.436C368.747 629.45 332.67 648.985 297.624 638.051C292.119 636.497 277.676 629.219 271.754 621.702C261.321 606.19 257.665 586.253 263.171 566.531C267.908 549.567 278.599 536.661 293.761 524.025C305.102 514.574 312.311 507.303 316.201 495.661C317.726 491.091 322.642 488.592 327.26 489.964L362.609 500.469C360.947 510.588 373.564 529.724 377.377 542.124C383.177 560.988 385.083 577.638 379.788 594.436Z" fill="#FFF0AF"/>
<path d="M271.753 621.701C276.44 624.421 281.56 626.609 287.065 628.164C322.112 639.099 358.188 619.563 369.229 584.549C374.526 567.751 372.618 551.101 366.817 532.235C363.004 519.835 360.947 510.586 362.609 500.466L378.474 505.181C383.092 506.553 385.844 511.332 384.627 515.993C381.526 527.869 383.595 537.897 387.935 552.008C393.736 570.875 395.644 587.524 390.347 604.322C379.307 639.335 343.229 658.87 308.183 647.935C292.557 643.522 280.027 634.001 271.753 621.701Z" fill="#FFD064"/>
<path d="M489.195 448.226C486.964 444.11 484.651 441.409 479.779 440.033C471.487 437.569 461.481 437.957 454.898 441.523C448.316 445.09 442.528 453.26 440.064 461.552C438.554 466.384 439.555 469.796 441.785 473.914L444.026 478.049L472.96 474.857L491.435 452.361C490.352 450.363 489.552 448.888 489.195 448.226Z" fill="#E1DEE2"/>
<path d="M444.026 478.049C449.687 488.497 463.201 513.44 463.201 513.44L510.611 487.753C510.611 487.753 497.096 462.81 491.435 452.361L444.026 478.049Z" fill="#C5BEC6"/>
<path d="M545.944 609.561C580.012 591.695 586.208 549.818 571.337 520.517C563.616 511.614 553.592 504.621 541.479 498.205C528.433 491.295 519.879 485.666 513.674 475.077C511.238 470.921 505.914 469.488 501.677 471.783L454.702 497.235C450.466 499.531 448.758 504.773 450.91 509.084C456.392 520.065 456.435 530.305 455.099 545.007C453.859 558.658 454.242 570.874 457.483 582.205C475.106 611.871 512.372 628.345 545.944 609.561Z" fill="#BFE2E6"/>
<path d="M571.337 520.517C579.843 550.011 567.327 581.821 538.971 596.692C511.03 612.325 477.546 605.438 457.483 582.205C458.909 587.191 460.883 592.007 463.525 596.695C481.547 628.679 520.877 640.356 552.917 622.43C585.43 605.379 597.127 566.056 580.176 533.491C577.691 528.719 574.735 524.435 571.337 520.517Z" fill="#94CCD4"/>
</g>
<defs>
<clipPath id="clip0_1_193">
<rect width="643" height="643" fill="white" transform="translate(183.164 -60) rotate(16.5504)"/>
</clipPath>
</defs>
</svg>
