<svg width="733" height="798" viewBox="0 0 733 798" fill="none" xmlns="http://www.w3.org/2000/svg">
<g opacity="0.15" clip-path="url(#clip0_1_742)">
<path d="M122.468 280.401L78.3375 261.009C66.1504 255.654 51.9308 261.192 46.5767 273.378C41.2226 285.565 46.7593 299.785 58.946 305.139L103.076 324.531C115.262 329.885 129.482 324.349 134.837 312.161C140.191 299.975 134.653 285.755 122.468 280.401ZM104.584 462.681L59.6672 480.174C47.2634 485.005 41.1245 498.975 45.9552 511.379C50.7859 523.783 64.7564 529.922 77.1602 525.091L122.077 507.598C134.481 502.767 140.62 488.797 135.789 476.393C130.959 463.989 116.988 457.85 104.584 462.681ZM256.455 201.789C268.859 196.958 274.997 182.988 270.167 170.584L252.674 125.667C247.843 113.263 233.873 107.125 221.469 111.955C209.065 116.786 202.926 130.756 207.757 143.16L225.25 188.077C230.08 200.481 244.051 206.62 256.455 201.789ZM459.47 112.575C447.283 107.22 433.063 112.758 427.709 124.944L408.318 169.075C402.962 181.261 408.5 195.481 420.687 200.835C432.873 206.19 447.093 200.653 452.448 188.466L471.839 144.336C477.194 132.15 471.656 117.931 459.47 112.575ZM472.803 624.483L382.969 659.469C370.565 664.299 364.426 678.27 369.257 690.674C374.088 703.077 388.058 709.216 400.462 704.386L490.296 669.4C502.7 664.569 508.839 650.598 504.008 638.195C499.177 625.791 485.207 619.652 472.803 624.483ZM589.688 273.757L544.771 291.25C532.367 296.08 526.228 310.051 531.059 322.455C535.889 334.859 549.86 340.997 562.264 336.167L607.181 318.674C619.585 313.843 625.723 299.873 620.893 287.469C616.062 275.065 602.092 268.926 589.688 273.757ZM272.198 242.214C185.18 276.104 142.318 373.613 176.214 460.649C200.067 521.895 257.082 563.311 321.408 567.811L336.02 605.331C340.851 617.735 354.822 623.874 367.225 619.043L457.059 584.057C469.463 579.227 475.602 565.256 470.771 552.852L456.159 515.332C500.499 468.512 514.486 399.444 490.633 338.198C474.253 296.138 442.537 263.003 401.327 244.894C360.117 226.786 314.259 225.834 272.198 242.214ZM412.164 490.745C404.389 497.407 401.673 508.253 405.388 517.794L417.108 547.887L372.191 565.38L360.471 535.287C356.756 525.746 347.418 519.596 337.186 519.945C286.338 521.689 239.699 490.831 221.131 443.156C197.017 381.238 227.773 311.246 289.691 287.131C351.61 263.017 421.602 293.773 445.716 355.691C464.284 403.366 450.799 457.64 412.164 490.745Z" fill="url(#paint0_linear_1_742)"/>
</g>
<defs>
<linearGradient id="paint0_linear_1_742" x1="45.9552" y1="511.379" x2="620.893" y2="287.469" gradientUnits="userSpaceOnUse">
<stop stop-color="#9DD6FC"/>
<stop offset="0.0056" stop-color="#9DD6FC"/>
<stop offset="1" stop-color="#D17FF7"/>
</linearGradient>
<clipPath id="clip0_1_742">
<rect width="617" height="617" fill="white" transform="translate(-66 223.91) rotate(-21.2785)"/>
</clipPath>
</defs>
</svg>
