<svg width="756" height="754" viewBox="0 0 756 754" fill="none" xmlns="http://www.w3.org/2000/svg">
<g opacity="0.15" clip-path="url(#clip0_1_747)">
<path d="M326.007 122.441L306.776 78.241C301.465 66.0345 287.266 60.4449 275.06 65.7561C262.855 71.0674 257.264 85.2662 262.576 97.4717L281.806 141.672C287.116 153.877 301.315 159.468 313.522 154.157C325.727 148.846 331.317 134.646 326.007 122.441ZM189.109 244.117L144.256 226.461C131.87 221.585 117.877 227.673 113.001 240.059C108.125 252.445 114.213 266.438 126.6 271.314L171.453 288.97C183.839 293.846 197.831 287.758 202.707 275.372C207.583 262.986 201.495 248.993 189.109 244.117ZM477.749 155.707C490.135 160.583 504.128 154.495 509.004 142.109L526.66 97.2561C531.536 84.8699 525.448 70.8772 513.062 66.0014C500.676 61.1255 486.683 67.2135 481.807 79.5996L464.151 124.453C459.275 136.839 465.363 150.832 477.749 155.707ZM687.366 228.06C682.056 215.853 667.856 210.264 655.651 215.575L611.45 234.806C599.244 240.115 593.654 254.316 598.966 266.521C604.276 278.726 618.474 284.317 630.681 279.006L674.881 259.775C687.086 254.465 692.676 240.266 687.366 228.06ZM349.568 612.923L259.863 577.61C247.476 572.734 233.484 578.822 228.608 591.208C223.732 603.595 229.82 617.587 242.206 622.463L331.912 657.776C344.298 662.652 358.291 656.564 363.167 644.178C368.043 631.792 361.955 617.799 349.568 612.923ZM673.521 434.807L628.668 417.151C616.282 412.275 602.289 418.363 597.414 430.749C592.538 443.135 598.626 457.128 611.012 462.004L655.865 479.66C668.251 484.536 682.244 478.448 687.12 466.062C691.995 453.676 685.907 439.683 673.521 434.807ZM461.858 196.075C374.963 161.869 277.288 204.35 243.075 291.263C219 352.421 232.735 421.54 276.904 468.521L262.155 505.988C257.279 518.374 263.367 532.367 275.753 537.242L365.459 572.555C377.845 577.431 391.838 571.343 396.714 558.957L411.463 521.49C475.805 517.225 532.971 476.016 557.046 414.858C573.579 372.858 572.794 326.997 554.837 285.721C536.878 244.445 503.858 212.609 461.858 196.075ZM395.859 473.567C385.628 473.179 376.269 479.297 372.519 488.824L360.689 518.874L315.836 501.218L327.666 471.167C331.416 461.641 328.737 450.785 320.988 444.094C282.474 410.848 269.187 356.526 287.928 308.919C312.267 247.089 382.372 216.589 444.202 240.928C506.031 265.267 536.532 335.372 512.193 397.202C493.452 444.809 446.701 475.496 395.859 473.567Z" fill="url(#paint0_linear_1_747)"/>
</g>
<defs>
<linearGradient id="paint0_linear_1_747" x1="113.001" y1="240.059" x2="687.12" y2="466.062" gradientUnits="userSpaceOnUse">
<stop stop-color="#9DD6FC"/>
<stop offset="0.0056" stop-color="#9DD6FC"/>
<stop offset="1" stop-color="#D17FF7"/>
</linearGradient>
<clipPath id="clip0_1_747">
<rect width="617" height="617" fill="white" transform="translate(226.003 -47) rotate(21.4872)"/>
</clipPath>
</defs>
</svg>
