<svg width="741" height="732" viewBox="0 0 741 732" fill="none" xmlns="http://www.w3.org/2000/svg">
<g opacity="0.15" clip-path="url(#clip0_1_1088)">
<path d="M737.678 86.4475C738.417 80.2737 736.635 74.0636 732.739 69.2148C728.843 64.3712 723.159 61.296 716.971 60.6923L603.848 48.5824C600.624 48.8441 597.576 50.164 595.173 52.3292L318.003 276.352C228.114 237.765 123.499 265.429 64.4324 343.404C5.36587 421.379 7.06958 529.577 68.563 605.658C130.051 681.738 235.492 706.094 324.119 664.692C412.747 623.291 461.734 526.798 442.851 430.815L470.403 408.55C472.027 407.2 473.003 405.224 473.079 403.117L473.931 341.169C473.977 339.048 474.954 337.063 476.602 335.731C478.25 334.399 480.396 333.86 482.48 334.259L538.092 345.405C540.167 345.783 542.309 345.238 543.951 343.911C545.593 342.584 546.574 340.609 546.636 338.495L547.4 281.782C547.446 279.666 548.423 277.676 550.071 276.344C551.718 275.017 553.87 274.479 555.948 274.878L611.56 286.024C613.636 286.401 615.777 285.857 617.419 284.529C619.061 283.202 620.043 281.222 620.104 279.113L621.011 222.185C621.055 220.095 622.013 218.133 623.638 216.82C625.262 215.512 627.382 214.981 629.428 215.381L690.538 227.457C692.585 227.852 694.701 227.305 696.297 225.968L722.132 204.449C724.434 202.494 725.898 199.725 726.217 196.72L737.678 86.4475ZM203.535 569.527C185.685 583.955 160.905 586.209 140.745 575.237C120.58 564.269 109.015 542.234 111.436 519.409C113.856 496.584 129.783 477.469 151.801 470.969C173.813 464.468 197.569 471.874 211.997 489.725C231.685 514.101 227.898 549.821 203.535 569.527Z" fill="#F29C1F"/>
<path d="M731.4 67.5872L210.739 488.421C190.804 465.178 155.996 461.997 132.181 481.246C108.37 500.496 104.177 535.191 122.728 559.557L67.3682 604.303C62.7448 598.448 58.3816 592.268 54.174 585.759C4.29448 506.936 11.5527 404.817 72.0771 333.837C132.601 262.856 232.286 239.557 318.003 276.352L595.173 52.3293C597.576 50.1641 600.624 48.8442 603.849 48.5824L716.971 60.6924C722.436 61.2299 727.548 63.6669 731.4 67.5872Z" fill="#F0C419"/>
<path d="M360.529 325.465C355.867 324.971 351.961 321.711 350.632 317.213C349.303 312.715 350.815 307.862 354.461 304.916L553.059 144.395C556.272 141.718 560.681 140.978 564.598 142.459C568.509 143.944 571.321 147.418 571.948 151.558C572.58 155.694 570.932 159.85 567.635 162.429L369.042 322.95C366.653 324.886 363.586 325.794 360.529 325.465Z" fill="white"/>
<path d="M605.026 129.863C605.7 123.499 601.088 117.786 594.719 117.111C588.349 116.436 582.636 121.053 581.962 127.417C581.286 133.787 585.904 139.5 592.273 140.175C598.643 140.85 604.35 136.232 605.026 129.863Z" fill="white"/>
</g>
<defs>
<clipPath id="clip0_1_1088">
<rect width="673.268" height="673.268" fill="white" transform="translate(70.9895 -9) rotate(6.05252)"/>
</clipPath>
</defs>
</svg>
