<svg width="166" height="201" viewBox="0 0 166 201" fill="none" xmlns="http://www.w3.org/2000/svg">
<path d="M69.0815 184.862V185.193C69.0223 187.005 69.3283 188.812 69.9812 190.504C70.634 192.196 71.6205 193.739 72.8819 195.043C74.1433 196.346 75.6539 197.382 77.3238 198.09C78.9937 198.798 80.7889 199.162 82.6027 199.162C84.4164 199.162 86.2116 198.798 87.8815 198.09C89.5514 197.382 91.062 196.346 92.3234 195.043C93.5848 193.739 94.5713 192.196 95.2241 190.504C95.877 188.812 96.183 187.005 96.1238 185.193V184.862H69.0815Z" fill="#707583"/>
<path d="M82.6012 200.154C80.6357 200.154 78.6893 199.767 76.8734 199.015C75.0574 198.263 73.4074 197.16 72.0176 195.771C70.6277 194.381 69.5252 192.731 68.773 190.915C68.0208 189.099 67.6337 187.152 67.6337 185.187V184.856C67.6337 184.474 67.7853 184.108 68.0552 183.838C68.3251 183.568 68.6912 183.417 69.0729 183.417H96.1152C96.4969 183.417 96.863 183.568 97.1329 183.838C97.4028 184.108 97.5544 184.474 97.5544 184.856V185.187C97.5544 189.154 95.9794 192.959 93.1756 195.765C90.3717 198.572 86.5684 200.151 82.6012 200.154ZM70.5696 186.304C70.8656 189.289 72.2609 192.057 74.4842 194.071C76.7075 196.085 79.6001 197.2 82.5998 197.2C85.5995 197.2 88.4921 196.085 90.7154 194.071C92.9387 192.057 94.334 189.289 94.63 186.304H70.5696Z" fill="#323C6B"/>
<path d="M108.953 155.272C110.68 142.429 117.012 131.404 125.832 121.339C132.661 113.487 137.256 103.945 139.137 93.7097C141.018 83.4747 140.116 72.9224 136.525 63.1552C133.916 55.5979 129.666 48.7125 124.079 42.994C118.492 37.2755 111.707 32.866 104.212 30.0827C63.4658 15.118 25.1776 44.8487 25.1776 83.5399C25.1553 97.4462 30.2011 110.884 39.3709 121.339C48.1816 131.413 54.5198 142.429 56.2525 155.275L108.953 155.272Z" fill="#FCD462"/>
<path d="M125.834 121.353C117.027 131.399 110.694 142.423 108.967 155.26H103.095C106.206 145.616 111.383 136.766 118.264 129.326C125.086 121.472 129.675 111.931 131.553 101.699C133.431 91.4676 132.53 80.9191 128.943 71.1542C126.333 63.5957 122.081 56.7095 116.492 50.991C110.903 45.2724 104.116 40.8636 96.6189 38.0816C86.7332 34.2076 75.9755 33.1145 65.5126 34.9209C55.0497 36.7273 45.2812 41.3642 37.2668 48.3286C44.9629 38.4696 55.642 31.3649 67.709 28.0758C79.7761 24.7867 92.5833 25.4897 104.218 30.0797C111.711 32.8617 118.495 37.2709 124.079 42.9898C129.664 48.7086 133.91 55.5948 136.513 63.1523C140.106 72.9211 141.01 83.4752 139.131 93.7128C137.253 103.95 132.661 113.496 125.834 121.353V121.353Z" fill="#F7BE56"/>
<path d="M82.3768 15.1323C81.9951 15.1323 81.629 14.9807 81.3591 14.7108C81.0892 14.4409 80.9376 14.0748 80.9376 13.6931V1.8918C80.9376 1.5101 81.0892 1.14404 81.3591 0.874135C81.629 0.604235 81.9951 0.452606 82.3768 0.452606C82.7584 0.452606 83.1245 0.604235 83.3944 0.874135C83.6643 1.14404 83.8159 1.5101 83.8159 1.8918V13.6931C83.8159 14.0748 83.6643 14.4409 83.3944 14.7108C83.1245 14.9807 82.7584 15.1323 82.3768 15.1323Z" fill="#323C6B"/>
<path d="M47.8016 24.5216C47.549 24.5216 47.3008 24.4551 47.0821 24.3288C46.8633 24.2025 46.6816 24.0208 46.5553 23.802L40.6604 13.5895C40.5562 13.4257 40.4863 13.2425 40.4548 13.051C40.4233 12.8595 40.4309 12.6636 40.4771 12.475C40.5232 12.2865 40.6071 12.1093 40.7235 11.954C40.84 11.7987 40.9866 11.6686 41.1547 11.5714C41.3227 11.4743 41.5087 11.4121 41.7014 11.3887C41.8941 11.3653 42.0895 11.3811 42.2759 11.4352C42.4623 11.4893 42.6359 11.5805 42.7861 11.7034C42.9364 11.8263 43.0602 11.9783 43.1502 12.1503L49.0451 22.3743C49.1714 22.5931 49.2379 22.8413 49.2379 23.0939C49.2379 23.3465 49.1714 23.5947 49.0451 23.8135C48.9188 24.0323 48.7371 24.214 48.5183 24.3403C48.2996 24.4666 48.0514 24.5331 47.7988 24.5331L47.8016 24.5216Z" fill="#323C6B"/>
<path d="M22.5497 49.9377C22.297 49.9377 22.0488 49.8712 21.8301 49.7448L11.6204 43.847C11.2926 43.6548 11.0541 43.3407 10.9569 42.9733C10.8598 42.6059 10.9119 42.215 11.1019 41.8858C11.292 41.5567 11.6045 41.3161 11.9712 41.2165C12.338 41.117 12.7293 41.1665 13.0596 41.3543L23.2692 47.2493C23.5436 47.4077 23.758 47.6522 23.8792 47.9449C24.0005 48.2376 24.0217 48.5621 23.9397 48.8681C23.8577 49.1741 23.6771 49.4445 23.4257 49.6374C23.1744 49.8302 22.8665 49.9348 22.5497 49.9348V49.9377Z" fill="#323C6B"/>
<path d="M13.3935 84.5733H1.59214C1.21045 84.5733 0.844382 84.4216 0.574482 84.1517C0.304581 83.8818 0.152954 83.5158 0.152954 83.1341C0.152954 82.7524 0.304581 82.3863 0.574482 82.1164C0.844382 81.8465 1.21045 81.6949 1.59214 81.6949H13.3935C13.7752 81.6949 14.1413 81.8465 14.4112 82.1164C14.6811 82.3863 14.8327 82.7524 14.8327 83.1341C14.8327 83.5158 14.6811 83.8818 14.4112 84.1517C14.1413 84.4216 13.7752 84.5733 13.3935 84.5733Z" fill="#323C6B"/>
<path d="M12.5703 125.043C12.2535 125.043 11.9455 124.939 11.6942 124.746C11.4429 124.553 11.2622 124.283 11.1802 123.977C11.0982 123.671 11.1195 123.346 11.2407 123.053C11.3619 122.761 11.5763 122.516 11.8507 122.358L22.0689 116.463C22.3993 116.275 22.7906 116.225 23.1574 116.325C23.5241 116.425 23.8366 116.665 24.0266 116.994C24.2167 117.323 24.2688 117.714 24.1717 118.082C24.0745 118.449 23.836 118.763 23.5081 118.955L13.2841 124.845C13.0676 124.972 12.8215 125.04 12.5703 125.043Z" fill="#323C6B"/>
<path d="M117.407 24.5216C117.154 24.5216 116.906 24.4551 116.687 24.3288C116.468 24.2024 116.287 24.0208 116.16 23.802C116.034 23.5832 115.967 23.335 115.967 23.0824C115.967 22.8298 116.034 22.5816 116.16 22.3628L122.055 12.1532C122.145 11.9812 122.269 11.8292 122.419 11.7063C122.569 11.5834 122.743 11.4922 122.929 11.4381C123.116 11.384 123.311 11.3682 123.504 11.3916C123.697 11.415 123.883 11.4772 124.051 11.5743C124.219 11.6714 124.365 11.8016 124.482 11.9568C124.598 12.1121 124.682 12.2894 124.728 12.4779C124.774 12.6664 124.782 12.8623 124.75 13.0539C124.719 13.2454 124.649 13.4286 124.545 13.5924L118.653 23.8135C118.525 24.0301 118.343 24.2095 118.124 24.3338C117.905 24.458 117.658 24.5228 117.407 24.5216V24.5216Z" fill="#323C6B"/>
<path d="M142.659 49.9377C142.342 49.9377 142.034 49.8332 141.783 49.6403C141.531 49.4474 141.351 49.177 141.269 48.871C141.187 48.565 141.208 48.2405 141.329 47.9478C141.45 47.6551 141.665 47.4106 141.939 47.2522L152.149 41.3573C152.479 41.1694 152.87 41.1199 153.237 41.2195C153.604 41.319 153.916 41.5596 154.106 41.8888C154.296 42.2179 154.348 42.6088 154.251 42.9762C154.154 43.3437 153.916 43.6577 153.588 43.8499L143.378 49.7449C143.159 49.8712 142.911 49.9377 142.659 49.9377Z" fill="#323C6B"/>
<path d="M163.605 84.5733H151.803C151.422 84.5733 151.055 84.4216 150.786 84.1517C150.516 83.8818 150.364 83.5158 150.364 83.1341C150.364 82.7524 150.516 82.3863 150.786 82.1164C151.055 81.8465 151.422 81.6949 151.803 81.6949H163.605C163.986 81.6949 164.352 81.8465 164.622 82.1164C164.892 82.3863 165.044 82.7524 165.044 83.1341C165.044 83.5158 164.892 83.8818 164.622 84.1517C164.352 84.4216 163.986 84.5733 163.605 84.5733Z" fill="#323C6B"/>
<path d="M152.641 125.043C152.388 125.043 152.14 124.977 151.921 124.85L141.712 118.955C141.384 118.763 141.145 118.449 141.048 118.082C140.951 117.714 141.003 117.323 141.193 116.994C141.383 116.665 141.696 116.425 142.062 116.325C142.429 116.225 142.82 116.275 143.151 116.463L153.36 122.358C153.635 122.516 153.849 122.761 153.97 123.053C154.092 123.346 154.113 123.671 154.031 123.977C153.949 124.283 153.768 124.553 153.517 124.746C153.266 124.939 152.958 125.043 152.641 125.043Z" fill="#323C6B"/>
<path d="M95.007 156.711C94.8975 156.712 94.7883 156.699 94.6818 156.674C94.31 156.587 93.9878 156.357 93.7859 156.033C93.584 155.709 93.519 155.318 93.6053 154.947L106.944 97.6813L95.1135 102.077C94.91 102.151 94.6926 102.178 94.4771 102.158C94.2615 102.138 94.0532 102.069 93.8672 101.959L82.6012 95.1541L71.3381 101.959C71.1527 102.071 70.9443 102.14 70.7285 102.16C70.5126 102.181 70.295 102.152 70.0918 102.077L58.2617 97.6813L71.6029 154.947C71.6896 155.319 71.6248 155.71 71.4229 156.035C71.2211 156.359 70.8986 156.59 70.5264 156.677C70.1543 156.763 69.7629 156.698 69.4385 156.497C69.1141 156.295 68.8832 155.972 68.7965 155.6L54.8479 95.7298C54.7889 95.4762 54.7997 95.2114 54.8793 94.9636C54.9589 94.7157 55.1042 94.4941 55.2998 94.3223C55.4938 94.153 55.7297 94.0388 55.9828 93.9918C56.236 93.9447 56.4971 93.9664 56.739 94.0546L70.4314 99.1407L81.8442 92.2325C82.069 92.0964 82.3269 92.0244 82.5897 92.0244C82.8525 92.0244 83.1104 92.0964 83.3352 92.2325L94.7508 99.1407L108.452 94.0459C108.696 93.9555 108.959 93.9327 109.215 93.9801C109.471 94.0275 109.709 94.1432 109.904 94.315C110.099 94.4868 110.244 94.7083 110.323 94.9559C110.403 95.2034 110.413 95.4679 110.355 95.7211L96.4088 155.591C96.3364 155.909 96.1584 156.193 95.9037 156.396C95.6491 156.6 95.3329 156.711 95.007 156.711Z" fill="#F7BE56"/>
<path d="M108.953 155.272V178.423C108.953 183.238 103.913 187.156 98.9188 187.156H64.4905C63.3652 187.16 62.2512 186.932 61.2172 186.488C60.1833 186.044 59.2514 185.393 58.4793 184.574C57.7071 183.756 57.1111 182.787 56.7281 181.729C56.3451 180.671 56.1833 179.546 56.2526 178.423V155.272H108.953Z" fill="#84879C"/>
<path d="M98.9217 188.598H64.4905C63.174 188.609 61.8693 188.35 60.6572 187.836C59.4451 187.322 58.3516 186.565 57.4444 185.611C56.5373 184.656 55.8359 183.526 55.3838 182.29C54.9317 181.053 54.7385 179.737 54.8163 178.423V155.272C54.8163 154.89 54.9679 154.524 55.2378 154.254C55.5077 153.984 55.8738 153.833 56.2555 153.833H108.953C109.334 153.833 109.701 153.984 109.97 154.254C110.24 154.524 110.392 154.89 110.392 155.272V178.423C110.14 181.262 108.811 183.898 106.679 185.79C104.546 187.682 101.771 188.686 98.9217 188.598V188.598ZM57.6918 156.711V178.423C57.6161 179.358 57.7362 180.298 58.0443 181.185C58.3523 182.071 58.8416 182.883 59.481 183.569C60.1204 184.256 60.8958 184.802 61.7578 185.172C62.6198 185.542 63.5495 185.729 64.4876 185.719H98.9217C102.977 185.719 107.514 182.599 107.514 178.423V156.711H57.6918Z" fill="#323C6B"/>
<path d="M52.2919 169.39C51.9102 169.409 51.5365 169.276 51.2531 169.02C50.9698 168.763 50.7998 168.405 50.7807 168.023C50.7616 167.641 50.895 167.268 51.1514 166.984C51.4078 166.701 51.7663 166.531 52.148 166.512L112.326 160.344C112.705 160.309 113.083 160.424 113.378 160.665C113.673 160.905 113.861 161.252 113.904 161.63C113.942 162.01 113.829 162.389 113.588 162.685C113.347 162.98 112.999 163.168 112.62 163.208L52.4387 169.382L52.2919 169.39Z" fill="#323C6B"/>
<path d="M52.7352 181.215C52.3535 181.234 51.9798 181.101 51.6964 180.844C51.413 180.588 51.2431 180.229 51.224 179.848C51.2049 179.466 51.3383 179.092 51.5947 178.809C51.8511 178.525 52.2096 178.355 52.5913 178.336L112.326 172.223C112.705 172.189 113.082 172.304 113.377 172.545C113.672 172.785 113.861 173.131 113.904 173.509C113.942 173.889 113.829 174.268 113.588 174.564C113.347 174.859 112.999 175.048 112.62 175.087L52.882 181.209L52.7352 181.215Z" fill="#323C6B"/>
<path d="M108.956 156.711H56.2525C55.902 156.714 55.5624 156.589 55.2974 156.36C55.0324 156.13 54.8603 155.812 54.8133 155.465C53.2792 144.101 47.8678 133.247 38.2742 122.283C32.8284 116.056 28.7567 108.75 26.3248 100.843C23.8929 92.9363 23.1553 84.6054 24.1603 76.3942C25.1652 68.183 27.8901 60.2758 32.1571 53.1887C36.4241 46.1017 42.1374 39.9938 48.9242 35.2637C56.9838 29.7064 66.281 26.206 76.0045 25.0681C85.728 23.9302 95.5822 25.1893 104.707 28.7355C112.392 31.6133 119.349 36.1484 125.083 42.0186C130.816 47.8889 135.187 54.9501 137.883 62.7004C141.534 72.7107 142.442 83.5152 140.513 93.9943C138.583 104.473 133.887 114.246 126.911 122.3C117.317 133.258 111.912 144.11 110.378 155.476C110.328 155.819 110.158 156.132 109.897 156.359C109.635 156.585 109.301 156.71 108.956 156.711V156.711ZM57.496 153.833H107.712C109.537 142.345 115.118 131.381 124.749 120.392C131.388 112.718 135.855 103.408 137.686 93.4275C139.517 83.4469 138.646 73.1581 135.163 63.6272C132.606 56.281 128.463 49.5881 123.027 44.0243C117.591 38.4605 110.996 34.1624 103.711 31.4355C95.0225 28.0557 85.6388 26.8532 76.3786 27.9329C67.1184 29.0126 58.2631 32.3417 50.585 37.6297C44.1298 42.1283 38.6955 47.9373 34.6368 54.6777C30.578 61.4181 27.9859 68.9385 27.0296 76.7483C26.0733 84.558 26.7742 92.4817 29.0867 100.002C31.3992 107.523 35.2712 114.471 40.4502 120.395C50.087 131.393 55.6682 142.348 57.496 153.833V153.833Z" fill="#323C6B"/>
<path d="M48.55 117.211C48.282 117.211 48.0171 117.154 47.7733 117.042C47.5294 116.931 47.3124 116.769 47.1367 116.566L46.8661 116.256C46.5121 115.853 46.1868 115.432 45.8587 115.009L45.4529 114.494C45.1437 114.105 45.0015 113.61 45.0577 113.117C45.1138 112.623 45.3636 112.172 45.7522 111.863C46.1408 111.554 46.6362 111.412 47.1296 111.468C47.623 111.524 48.0739 111.774 48.383 112.162L48.8119 112.712C49.0998 113.075 49.3876 113.438 49.6754 113.783L49.9633 114.108C50.1984 114.379 50.3507 114.712 50.4019 115.067C50.4532 115.422 50.4012 115.785 50.2523 116.111C50.1033 116.438 49.8636 116.714 49.5618 116.908C49.26 117.102 48.9088 117.205 48.55 117.205V117.211Z" fill="white"/>
<path d="M41.593 106.809C41.2422 106.808 40.8986 106.709 40.6014 106.523C40.3042 106.337 40.0653 106.071 39.912 105.755C34.6601 94.94 33.7086 82.5346 37.2495 71.0448C37.4035 70.5803 37.7334 70.1946 38.1685 69.9705C38.6035 69.7463 39.1091 69.7016 39.5767 69.8458C40.0444 69.99 40.4369 70.3117 40.6702 70.7419C40.9034 71.1722 40.9588 71.6767 40.8245 72.1473C39.5401 76.3173 38.8872 80.6561 38.8873 85.0194C38.8702 91.638 40.3708 98.1724 43.274 104.12C43.4123 104.406 43.4759 104.721 43.459 105.038C43.4421 105.354 43.3451 105.662 43.1771 105.93C43.0092 106.199 42.7758 106.421 42.4987 106.575C42.2217 106.729 41.91 106.811 41.593 106.812V106.809Z" fill="white"/>
</svg>
