<svg width="25" height="25" viewBox="0 0 25 25" fill="none" xmlns="http://www.w3.org/2000/svg">
<g clip-path="url(#clip0_5_1196)">
<path d="M25 15.625L25 3.125C25 2.26212 24.3005 1.5625 23.4375 1.5625L18.75 1.5625L18.75 17.1875L23.4375 17.1875C24.3005 17.1875 25 16.488 25 15.625Z" fill="#E51616"/>
<path d="M2.88544 15.6254L7.50122 15.6254C7.90482 15.6254 8.107 15.8947 8.1749 16.0106C8.2428 16.1258 8.38013 16.4333 8.18482 16.7858L6.55747 19.7162C6.20042 20.3579 6.1638 21.1124 6.456 21.7861C6.74821 22.4605 7.32499 22.9496 8.03835 23.1273L9.18581 23.4142C9.46504 23.4844 9.76106 23.3951 9.95561 23.1792L16.1858 16.2578C16.832 15.5384 17.1875 14.6106 17.1875 13.6448L17.1875 5.46911C17.1875 3.31533 15.435 1.56286 13.2813 1.56286L5.50919 1.56362C3.75443 1.56362 2.2049 2.74542 1.74181 4.43686L0.0740232 12.0907C0.0251951 12.3035 1.81192e-05 12.5217 1.81383e-05 12.7399C1.82773e-05 14.3307 1.29473 15.6254 2.88546 15.6254L2.88544 15.6254Z" fill="#E51616"/>
</g>
<defs>
<clipPath id="clip0_5_1196">
<rect width="25" height="25" fill="white" transform="translate(25 25) rotate(180)"/>
</clipPath>
</defs>
</svg>
